<svg width="437" height="376" viewBox="0 0 437 376" fill="none" xmlns="http://www.w3.org/2000/svg">
<g clip-path="url(#clip0_138_31)">
<path d="M87.9458 254.269H125.091C128.597 268.078 140.047 274.983 159.387 274.983C173.085 274.983 182.727 270.545 188.315 261.668C193.958 252.791 196.752 239.31 196.752 221.226V115.518H108.503V73.7604H196.752H219.04H238.5V220.018C238.5 251.253 231.871 274.432 218.612 289.504C205.352 304.574 184.096 312.137 154.784 312.137C135.335 312.137 119.612 307.041 107.667 296.848C95.6685 286.601 89.0942 272.408 87.9438 254.269H87.9458Z" fill="#0A0016"/>
<path fill-rule="evenodd" clip-rule="evenodd" d="M347.07 19.6267L306.361 10.361L260.846 0L251.581 40.7158L297.1 51.0768L225.279 366.734L265.986 376L337.804 60.3425L383.322 70.7035L392.585 29.9877L347.07 19.6267Z" fill="#0A0016"/>
<path fill-rule="evenodd" clip-rule="evenodd" d="M396.287 180.233L343.315 156.413V124.444L437.009 169.264V190.947L343.315 236.246V204.263L396.287 180.233Z" fill="#0A0016"/>
<path fill-rule="evenodd" clip-rule="evenodd" d="M40.4976 180.14L93.471 204.271V236.258L0 190.949V169.272L93.471 124.444V156.421L40.4976 180.14Z" fill="#0A0016"/>
</g>
<defs>
<clipPath id="clip0_138_31">
<rect width="437" height="376" fill="white"/>
</clipPath>
</defs>
</svg>
