<svg width="840" height="676" viewBox="0 0 840 676" fill="none" xmlns="http://www.w3.org/2000/svg">
<path d="M171.431 455.388H242.152C248.825 479.903 270.62 492.156 307.447 492.156C333.526 492.156 351.881 484.275 362.525 468.512C373.273 452.75 378.583 428.826 378.583 396.72V209.067H210.578V134.939H378.583H421.02H458.066V394.577C458.066 450.026 445.448 491.176 420.201 517.931C394.953 544.686 354.49 558.102 298.685 558.102C261.662 558.102 231.716 549.058 208.985 530.959C186.139 512.763 173.625 487.569 171.431 455.377V455.388Z" stroke="#0A0016" stroke-width="8" stroke-miterlimit="2.61313"/>
<path fill-rule="evenodd" clip-rule="evenodd" d="M664.764 38.841L587.266 22.3895L500.614 4L482.975 76.2767L569.627 94.677L432.895 655.018L510.392 671.469L647.124 111.118L733.787 129.518L751.427 57.2305L664.764 38.841Z" stroke="#0A0016" stroke-width="8" stroke-miterlimit="2.61313" stroke-linecap="round" stroke-linejoin="round"/>
<path fill-rule="evenodd" clip-rule="evenodd" d="M758.468 323.954L657.617 281.662V224.911L836 304.477V342.968L657.617 423.384V366.611L758.468 323.954Z" stroke="#0A0016" stroke-width="8" stroke-miterlimit="2.61313"/>
<path fill-rule="evenodd" clip-rule="evenodd" d="M81.1047 323.792L181.956 366.622V423.406L4 342.979V304.488L181.956 224.911V281.684L81.1047 323.792Z" stroke="#0A0016" stroke-width="8" stroke-miterlimit="2.61313"/>
</svg>
