<svg width="784" height="631" viewBox="0 0 784 631" fill="none" xmlns="http://www.w3.org/2000/svg">
<path d="M160.13 424.919H226.077C232.299 447.78 252.624 459.206 286.965 459.206C311.283 459.206 328.399 451.856 338.325 437.158C348.347 422.46 353.299 400.151 353.299 370.212V195.226H196.634V126.101H353.299H392.872H427.417V368.214C427.417 419.919 415.651 458.292 392.107 483.241C368.564 508.191 330.832 520.7 278.794 520.7C244.27 520.7 216.345 512.267 195.149 495.39C173.845 478.422 162.175 454.929 160.13 424.909V424.919Z" stroke="#F2D8FF" stroke-width="8" stroke-miterlimit="2.61313"/>
<path fill-rule="evenodd" clip-rule="evenodd" d="M620.162 36.4892L547.896 21.1482L467.093 4L450.644 71.3981L531.447 88.5563L403.945 611.075L476.211 626.416L603.713 103.887L684.527 121.046L700.976 53.6374L620.162 36.4892Z" stroke="#F2D8FF" stroke-width="8" stroke-miterlimit="2.61313" stroke-linecap="round" stroke-linejoin="round"/>
<path fill-rule="evenodd" clip-rule="evenodd" d="M707.542 302.357L613.498 262.92V210L779.841 284.195V320.088L613.498 395.076V342.135L707.542 302.357Z" stroke="#F2D8FF" stroke-width="8" stroke-miterlimit="2.61313"/>
<path fill-rule="evenodd" clip-rule="evenodd" d="M75.9002 302.207L169.944 342.146V395.096L4 320.098V284.205L169.944 210V262.94L75.9002 302.207Z" stroke="#F2D8FF" stroke-width="8" stroke-miterlimit="2.61313"/>
</svg>
